# xmcd
#
# Track frame offsets: 
#        150
#        9807
#        22400
#        33872
#        47375
#        60557
#        75442
#        86079
#        101012
#        120015
#
# Disc length: 1776 seconds
#
# Revision: 1
# Processed by: cddbd v1.5.2PL0 Copyright (c) Steve Scherf et al.
# Submitted via: ExactAudioCopy v0.99pb5
#
DISCID=6406ee0a
DTITLE=Waylon Jennings - American Music Legends
DYEAR=2007
DGENRE=Country
TTITLE0=Theme From Dukes Of Hazzard
TTITLE1=I'm A Ramblin' Man
TTITLE2=Mamas Don't Let Your Babies Grow Up To Be Cowboys with Willie 
TTITLE2=Nelson
TTITLE3=Amanda
TTITLE4=Are You Sure Hank Done It This Way
TTITLE5=There Ain't No Good Chain Gang with Johnny Cash
TTITLE6=Only Daddy That'll Walk The Line
TTITLE7=Luckenbach, Texas with Willie Nelson
TTITLE8=I've Always Been Crazy
TTITLE9=Good Hearted Woman (Live) with Willie Nelson
EXTD=
EXTT0=
EXTT1=
EXTT2=
EXTT3=
EXTT4=
EXTT5=
EXTT6=
EXTT7=
EXTT8=
EXTT9=
PLAYORDER=
